<svg width="253" height="287" viewBox="0 0 253 287" fill="none" xmlns="http://www.w3.org/2000/svg">
<rect width="253" height="287" rx="30" fill="#179583"/>
<rect x="46" y="37" width="161.333" height="156" fill="#D1EDF3"/>
<path d="M46 36.9999C72.6667 36.9999 88.9807 36.9999 142 36.9999C195.019 36.9999 217.333 36.9999 238 36.9999C238 59.8277 195.019 78.3333 142 78.3333C88.9807 78.3333 46 59.8277 46 36.9999Z" fill="black"/>
<path d="M46.0001 110.333C46.0001 100.148 46.0001 93.9171 46.0001 73.6667C46.0001 53.4162 46.0001 44.8935 46.0001 37C60.7277 37 72.6667 53.4162 72.6667 73.6667C72.6667 93.9171 60.7277 110.333 46.0001 110.333Z" fill="black"/>
<circle cx="92.0001" cy="133.667" r="19.3333" fill="#A8E2EA"/>
<circle cx="174.667" cy="133.667" r="19.3333" fill="#A8E2EA"/>
<circle cx="99.9999" cy="115" r="4.66667" fill="black"/>
<circle cx="165.333" cy="115" r="4.66667" fill="black"/>
<path d="M118 151.667L119.168 152.327C128.003 157.321 138.765 157.509 147.77 152.826L150 151.667V154.333L134 158.333L118 154.333V151.667Z" fill="black"/>
<path d="M45.416 239.6C47.464 239.6 48.9893 240.08 49.992 241.04C50.9947 242 51.496 243.419 51.496 245.296C51.496 246.299 51.2507 247.184 50.76 247.952C50.2693 248.699 49.544 249.285 48.584 249.712C47.624 250.117 46.44 250.32 45.032 250.32L45.16 248.88C45.8213 248.88 46.5787 248.976 47.432 249.168C48.2853 249.339 49.1067 249.659 49.896 250.128C50.7067 250.576 51.368 251.216 51.88 252.048C52.4133 252.859 52.68 253.904 52.68 255.184C52.68 256.592 52.4453 257.744 51.976 258.64C51.528 259.536 50.9307 260.229 50.184 260.72C49.4373 261.211 48.6373 261.552 47.784 261.744C46.9307 261.915 46.1093 262 45.32 262H37.352C36.7973 262 36.328 261.819 35.944 261.456C35.5813 261.072 35.4 260.603 35.4 260.048V241.552C35.4 240.997 35.5813 240.539 35.944 240.176C36.328 239.792 36.7973 239.6 37.352 239.6H45.416ZM44.84 243.376H39.144L39.56 242.864V248.656L39.176 248.368H44.936C45.5547 248.368 46.1093 248.165 46.6 247.76C47.0907 247.355 47.336 246.768 47.336 246C47.336 245.083 47.1013 244.421 46.632 244.016C46.184 243.589 45.5867 243.376 44.84 243.376ZM45.096 252.144H39.272L39.56 251.888V258.64L39.24 258.32H45.32C46.3013 258.32 47.08 258.064 47.656 257.552C48.232 257.019 48.52 256.229 48.52 255.184C48.52 254.224 48.328 253.531 47.944 253.104C47.56 252.677 47.1013 252.411 46.568 252.304C46.0347 252.197 45.544 252.144 45.096 252.144ZM68.7208 258.256C69.2754 258.256 69.7341 258.437 70.0968 258.8C70.4808 259.141 70.6728 259.589 70.6728 260.144C70.6728 260.677 70.4808 261.125 70.0968 261.488C69.7341 261.829 69.2754 262 68.7208 262H58.3208C57.7661 262 57.2968 261.819 56.9128 261.456C56.5501 261.072 56.3688 260.603 56.3688 260.048V241.552C56.3688 240.997 56.5608 240.539 56.9448 240.176C57.3288 239.792 57.8194 239.6 58.4168 239.6C58.9288 239.6 59.3768 239.792 59.7608 240.176C60.1661 240.539 60.3688 240.997 60.3688 241.552V258.8L59.6648 258.256H68.7208ZM94.633 250.8C94.633 252.4 94.3663 253.893 93.833 255.28C93.2997 256.667 92.5423 257.893 91.561 258.96C90.601 260.005 89.449 260.827 88.105 261.424C86.7823 262.021 85.3317 262.32 83.753 262.32C82.1743 262.32 80.7237 262.021 79.401 261.424C78.0783 260.827 76.9263 260.005 75.945 258.96C74.985 257.893 74.2383 256.667 73.705 255.28C73.1717 253.893 72.905 252.4 72.905 250.8C72.905 249.2 73.1717 247.707 73.705 246.32C74.2383 244.933 74.985 243.717 75.945 242.672C76.9263 241.605 78.0783 240.773 79.401 240.176C80.7237 239.579 82.1743 239.28 83.753 239.28C85.3317 239.28 86.7823 239.579 88.105 240.176C89.449 240.773 90.601 241.605 91.561 242.672C92.5423 243.717 93.2997 244.933 93.833 246.32C94.3663 247.707 94.633 249.2 94.633 250.8ZM90.473 250.8C90.473 249.371 90.185 248.08 89.609 246.928C89.033 245.755 88.2437 244.827 87.241 244.144C86.2383 243.461 85.0757 243.12 83.753 243.12C82.4303 243.12 81.2677 243.461 80.265 244.144C79.2623 244.827 78.473 245.744 77.897 246.896C77.3423 248.048 77.065 249.349 77.065 250.8C77.065 252.229 77.3423 253.531 77.897 254.704C78.473 255.856 79.2623 256.773 80.265 257.456C81.2677 258.139 82.4303 258.48 83.753 258.48C85.0757 258.48 86.2383 258.139 87.241 257.456C88.2437 256.773 89.033 255.856 89.609 254.704C90.185 253.531 90.473 252.229 90.473 250.8ZM108.866 262.32C107.245 262.32 105.73 262.021 104.322 261.424C102.914 260.827 101.677 260.005 100.61 258.96C99.5436 257.893 98.7009 256.667 98.0823 255.28C97.4849 253.893 97.1863 252.4 97.1863 250.8C97.1863 249.2 97.4849 247.707 98.0823 246.32C98.7009 244.933 99.5436 243.717 100.61 242.672C101.677 241.605 102.914 240.773 104.322 240.176C105.73 239.579 107.245 239.28 108.866 239.28C109.869 239.28 110.84 239.387 111.778 239.6C112.717 239.813 113.581 240.133 114.37 240.56C114.69 240.731 114.925 240.965 115.074 241.264C115.245 241.541 115.33 241.829 115.33 242.128C115.33 242.64 115.16 243.099 114.818 243.504C114.477 243.909 114.04 244.112 113.506 244.112C113.336 244.112 113.154 244.091 112.962 244.048C112.792 244.005 112.621 243.941 112.45 243.856C111.917 243.621 111.352 243.44 110.754 243.312C110.157 243.184 109.528 243.12 108.866 243.12C107.48 243.12 106.21 243.472 105.058 244.176C103.928 244.859 103.021 245.787 102.338 246.96C101.677 248.112 101.346 249.392 101.346 250.8C101.346 252.187 101.677 253.467 102.338 254.64C103.021 255.813 103.928 256.752 105.058 257.456C106.21 258.139 107.48 258.48 108.866 258.48C109.506 258.48 110.21 258.416 110.978 258.288C111.746 258.16 112.376 257.989 112.866 257.776L112.578 258.736V253.264L113.122 253.744H109.57C109.016 253.744 108.546 253.563 108.162 253.2C107.8 252.837 107.618 252.379 107.618 251.824C107.618 251.269 107.8 250.811 108.162 250.448C108.546 250.085 109.016 249.904 109.57 249.904H114.818C115.373 249.904 115.832 250.096 116.194 250.48C116.557 250.843 116.738 251.301 116.738 251.856V258.64C116.738 259.067 116.632 259.419 116.418 259.696C116.226 259.973 116.002 260.197 115.746 260.368C114.765 260.965 113.688 261.445 112.514 261.808C111.362 262.149 110.146 262.32 108.866 262.32ZM129.836 239.6C130.945 239.6 131.98 239.92 132.94 240.56C133.921 241.2 134.71 242.064 135.308 243.152C135.905 244.24 136.204 245.456 136.204 246.8C136.204 248.123 135.905 249.328 135.308 250.416C134.71 251.504 133.921 252.379 132.94 253.04C131.98 253.68 130.945 254 129.836 254H123.948L124.268 253.424V260.048C124.268 260.603 124.097 261.072 123.756 261.456C123.414 261.819 122.966 262 122.411 262C121.878 262 121.441 261.819 121.1 261.456C120.758 261.072 120.588 260.603 120.588 260.048V241.552C120.588 240.997 120.769 240.539 121.132 240.176C121.516 239.792 121.985 239.6 122.54 239.6H129.836ZM129.836 250.352C130.241 250.352 130.636 250.181 131.02 249.84C131.404 249.499 131.724 249.061 131.98 248.528C132.236 247.973 132.364 247.397 132.364 246.8C132.364 246.181 132.236 245.605 131.98 245.072C131.724 244.539 131.404 244.112 131.02 243.792C130.636 243.451 130.241 243.28 129.836 243.28H123.884L124.268 242.704V250.864L123.916 250.352H129.836ZM160.477 250.8C160.477 252.4 160.21 253.893 159.677 255.28C159.143 256.667 158.386 257.893 157.405 258.96C156.445 260.005 155.293 260.827 153.949 261.424C152.626 262.021 151.175 262.32 149.597 262.32C148.018 262.32 146.567 262.021 145.245 261.424C143.922 260.827 142.77 260.005 141.789 258.96C140.829 257.893 140.082 256.667 139.549 255.28C139.015 253.893 138.749 252.4 138.749 250.8C138.749 249.2 139.015 247.707 139.549 246.32C140.082 244.933 140.829 243.717 141.789 242.672C142.77 241.605 143.922 240.773 145.245 240.176C146.567 239.579 148.018 239.28 149.597 239.28C151.175 239.28 152.626 239.579 153.949 240.176C155.293 240.773 156.445 241.605 157.405 242.672C158.386 243.717 159.143 244.933 159.677 246.32C160.21 247.707 160.477 249.2 160.477 250.8ZM156.317 250.8C156.317 249.371 156.029 248.08 155.453 246.928C154.877 245.755 154.087 244.827 153.085 244.144C152.082 243.461 150.919 243.12 149.597 243.12C148.274 243.12 147.111 243.461 146.109 244.144C145.106 244.827 144.317 245.744 143.741 246.896C143.186 248.048 142.909 249.349 142.909 250.8C142.909 252.229 143.186 253.531 143.741 254.704C144.317 255.856 145.106 256.773 146.109 257.456C147.111 258.139 148.274 258.48 149.597 258.48C150.919 258.48 152.082 258.139 153.085 257.456C154.087 256.773 154.877 255.856 155.453 254.704C156.029 253.531 156.317 252.229 156.317 250.8ZM171.35 262.32C169.857 262.32 168.513 262.139 167.318 261.776C166.123 261.392 164.982 260.731 163.894 259.792C163.617 259.557 163.403 259.291 163.254 258.992C163.105 258.693 163.03 258.395 163.03 258.096C163.03 257.605 163.201 257.179 163.542 256.816C163.905 256.432 164.353 256.24 164.886 256.24C165.291 256.24 165.654 256.368 165.974 256.624C166.785 257.285 167.585 257.787 168.374 258.128C169.185 258.469 170.177 258.64 171.35 258.64C172.139 258.64 172.865 258.523 173.526 258.288C174.187 258.032 174.721 257.701 175.126 257.296C175.531 256.869 175.734 256.389 175.734 255.856C175.734 255.216 175.542 254.672 175.158 254.224C174.774 253.776 174.187 253.403 173.398 253.104C172.609 252.784 171.606 252.539 170.39 252.368C169.238 252.197 168.225 251.941 167.35 251.6C166.475 251.237 165.739 250.789 165.142 250.256C164.566 249.701 164.129 249.061 163.83 248.336C163.531 247.589 163.382 246.757 163.382 245.84C163.382 244.453 163.734 243.269 164.438 242.288C165.163 241.307 166.134 240.56 167.35 240.048C168.566 239.536 169.91 239.28 171.382 239.28C172.769 239.28 174.049 239.493 175.222 239.92C176.417 240.325 177.387 240.848 178.134 241.488C178.753 241.979 179.062 242.544 179.062 243.184C179.062 243.653 178.881 244.08 178.518 244.464C178.155 244.848 177.729 245.04 177.238 245.04C176.918 245.04 176.63 244.944 176.374 244.752C176.033 244.453 175.574 244.176 174.998 243.92C174.422 243.643 173.814 243.419 173.174 243.248C172.534 243.056 171.937 242.96 171.382 242.96C170.465 242.96 169.686 243.077 169.046 243.312C168.427 243.547 167.958 243.867 167.638 244.272C167.318 244.677 167.158 245.147 167.158 245.68C167.158 246.32 167.339 246.853 167.702 247.28C168.086 247.685 168.63 248.016 169.334 248.272C170.038 248.507 170.881 248.72 171.862 248.912C173.142 249.147 174.262 249.424 175.222 249.744C176.203 250.064 177.014 250.48 177.654 250.992C178.294 251.483 178.774 252.112 179.094 252.88C179.414 253.627 179.574 254.544 179.574 255.632C179.574 257.019 179.19 258.213 178.422 259.216C177.654 260.219 176.641 260.987 175.382 261.52C174.145 262.053 172.801 262.32 171.35 262.32ZM190.828 262C190.23 262 189.74 261.819 189.356 261.456C188.972 261.072 188.78 260.603 188.78 260.048V241.488H192.94V260.048C192.94 260.603 192.737 261.072 192.332 261.456C191.948 261.819 191.446 262 190.828 262ZM183.756 243.28C183.201 243.28 182.732 243.109 182.348 242.768C181.985 242.427 181.804 241.979 181.804 241.424C181.804 240.869 181.985 240.432 182.348 240.112C182.732 239.771 183.201 239.6 183.756 239.6H197.964C198.518 239.6 198.977 239.771 199.34 240.112C199.724 240.453 199.916 240.901 199.916 241.456C199.916 242.011 199.724 242.459 199.34 242.8C198.977 243.12 198.518 243.28 197.964 243.28H183.756ZM210.475 262.32C208.982 262.32 207.638 262.139 206.443 261.776C205.248 261.392 204.107 260.731 203.019 259.792C202.742 259.557 202.528 259.291 202.379 258.992C202.23 258.693 202.155 258.395 202.155 258.096C202.155 257.605 202.326 257.179 202.667 256.816C203.03 256.432 203.478 256.24 204.011 256.24C204.416 256.24 204.779 256.368 205.099 256.624C205.91 257.285 206.71 257.787 207.499 258.128C208.31 258.469 209.302 258.64 210.475 258.64C211.264 258.64 211.99 258.523 212.651 258.288C213.312 258.032 213.846 257.701 214.251 257.296C214.656 256.869 214.859 256.389 214.859 255.856C214.859 255.216 214.667 254.672 214.283 254.224C213.899 253.776 213.312 253.403 212.523 253.104C211.734 252.784 210.731 252.539 209.515 252.368C208.363 252.197 207.35 251.941 206.475 251.6C205.6 251.237 204.864 250.789 204.267 250.256C203.691 249.701 203.254 249.061 202.955 248.336C202.656 247.589 202.507 246.757 202.507 245.84C202.507 244.453 202.859 243.269 203.563 242.288C204.288 241.307 205.259 240.56 206.475 240.048C207.691 239.536 209.035 239.28 210.507 239.28C211.894 239.28 213.174 239.493 214.347 239.92C215.542 240.325 216.512 240.848 217.259 241.488C217.878 241.979 218.187 242.544 218.187 243.184C218.187 243.653 218.006 244.08 217.643 244.464C217.28 244.848 216.854 245.04 216.363 245.04C216.043 245.04 215.755 244.944 215.499 244.752C215.158 244.453 214.699 244.176 214.123 243.92C213.547 243.643 212.939 243.419 212.299 243.248C211.659 243.056 211.062 242.96 210.507 242.96C209.59 242.96 208.811 243.077 208.171 243.312C207.552 243.547 207.083 243.867 206.763 244.272C206.443 244.677 206.283 245.147 206.283 245.68C206.283 246.32 206.464 246.853 206.827 247.28C207.211 247.685 207.755 248.016 208.459 248.272C209.163 248.507 210.006 248.72 210.987 248.912C212.267 249.147 213.387 249.424 214.347 249.744C215.328 250.064 216.139 250.48 216.779 250.992C217.419 251.483 217.899 252.112 218.219 252.88C218.539 253.627 218.699 254.544 218.699 255.632C218.699 257.019 218.315 258.213 217.547 259.216C216.779 260.219 215.766 260.987 214.507 261.52C213.27 262.053 211.926 262.32 210.475 262.32Z" fill="white"/>
</svg>
